# xmcd CD database file generated by Grip 2.94
# 
# Track frame offsets:
#       150
#       19575
#       54975
#       77100
#       105075
#       125250
#       155400
#       193425
#       242625
#       278775
# 
# Disc length: 3847 seconds
# 
# Revision: 3
# Processed by: cddbd v1.4b41PL1 Copyright (c) Steve Scherf et al.
# Submitted via: Grip 2.94
# 
DISCID=780f050a
DTITLE=Lewis and Floorwax - Groove Hawgs
DYEAR=1900
DGENRE=
TTITLE0=Your Daddy Can
TTITLE1=I Don't Need Nobody
TTITLE2=Black Cat Bone - Only Got 50
TTITLE3=Messin' With the Kid
TTITLE4=Way To Get Home
TTITLE5=The Moon is Full
TTITLE6=Baby, What'd You Want Me to Do
TTITLE7=In the Can
TTITLE8=Please Please Baby
TTITLE9=Dick
EXTD=
EXTT0=
EXTT1=
EXTT2=
EXTT3=
EXTT4=
EXTT5=
EXTT6=
EXTT7=
EXTT8=
EXTT9=
PLAYORDER=
